<svg width="132" height="150" viewBox="0 0 132 150" fill="none" xmlns="http://www.w3.org/2000/svg">
<path fill-rule="evenodd" clip-rule="evenodd" d="M125.077 100.846C125.697 101.79 126.316 102.735 126.967 103.657C127.063 103.793 127.161 103.929 127.259 104.067C128.181 105.353 129.169 106.731 129.154 108.367C129.147 109.172 129.03 110.061 128.254 110.493C128.237 110.18 127.788 110.49 127.637 110.594C127.628 110.6 127.62 110.606 127.614 110.61C127.344 110.793 127.291 110.87 127.224 110.886C127.162 110.9 127.087 110.86 126.819 110.8C126.48 110.726 126.16 110.717 125.849 110.708C125.325 110.693 124.825 110.679 124.299 110.356C123.791 110.043 123.284 109.728 122.777 109.413C121.513 108.627 120.25 107.841 118.957 107.097C115.044 104.843 111.169 102.535 107.539 99.8418C105.527 98.3487 103.459 96.9048 101.388 95.4583C96.9271 92.3431 92.4486 89.2155 88.4657 85.5577C82.6378 80.2058 76.522 74.8959 69.6063 70.9815C69.5025 70.9228 69.3555 70.8575 69.1911 70.7844C68.6208 70.5312 67.8415 70.1852 67.9365 69.6996C68.0167 69.2908 68.7005 68.7598 69.2171 68.3586C69.394 68.2213 69.5511 68.0992 69.6579 68.0025C70.1732 67.5355 70.6958 67.0776 71.2187 66.6196C72.1715 65.785 73.1242 64.9503 74.0302 64.0628C76.6204 61.5254 79.1912 58.7251 81.2689 55.7479C82.1781 54.4447 82.6868 53.0103 83.2094 51.5363C83.2677 51.3719 83.3259 51.2072 83.3852 51.042C83.9059 49.5884 84.3873 47.7989 83.5421 46.361C83.1508 45.6949 82.6105 45.4247 81.8549 45.4752C81.755 45.4819 81.6718 45.4907 81.6016 45.4982C81.2315 45.5378 81.218 45.539 81.0097 44.9816C80.9768 44.8937 80.9448 44.8041 80.9124 44.7138C80.6818 44.0698 80.4377 43.3881 79.8099 43.0256C79.1309 42.6334 78.6501 42.9832 78.1127 43.3741C78.0632 43.4103 78.0132 43.4466 77.9624 43.4827C77.8496 43.3198 77.7325 43.1373 77.6096 42.9456C76.9801 41.9646 76.1964 40.7431 75.031 40.6632C73.5854 40.5641 72.7606 42.339 72.2573 43.4216L72.2483 43.441C70.7633 46.6365 68.8309 49.6215 66.7528 52.4672C64.5003 55.5519 62.1974 58.6896 59.7155 61.5942C59.6023 61.7268 59.4856 61.8727 59.3648 62.0236C58.926 62.5718 58.4339 63.187 57.8532 63.4795C57.0937 63.8625 56.4634 63.5027 55.8215 63.0624C55.4695 62.8209 55.1197 62.578 54.7705 62.3352C53.6184 61.5349 52.4708 60.7378 51.2622 60.0089C49.9266 59.203 48.5622 58.4492 47.1974 57.6951C46.7796 57.4643 46.3619 57.2332 45.9447 57.0009C45.6334 56.8275 45.3282 56.6399 45.023 56.4521C44.5589 56.1667 44.0942 55.8811 43.6062 55.6441C43.1758 55.435 42.7234 55.2863 42.2708 55.1373C41.9311 55.0256 41.5911 54.9138 41.2604 54.7763C43.9133 53.9855 46.6988 54.9057 49.2443 55.7464C49.4169 55.8035 49.5886 55.86 49.7588 55.9159C51.1505 56.3713 52.606 56.8456 54.0918 56.7231C55.3769 56.6173 56.5432 55.9292 57.5597 55.1777C59.397 53.8191 59.5412 51.7787 58.9421 49.7163C58.5368 48.3203 58.0049 46.9559 57.4737 45.5923C57.1015 44.6373 56.7295 43.6827 56.4013 42.7183C56.039 41.6532 55.7893 40.5222 56.6143 39.602C57.3525 38.7785 58.3077 38.6773 59.3152 39.0014C59.4153 39.0336 59.5148 39.0656 59.6141 39.0976C61.9365 39.8466 64.0324 40.5224 66.544 40.4509C68.5913 40.3926 71.1955 39.8115 72.5749 38.1478C73.3309 37.2358 73.3597 35.9818 73.3627 34.8506C73.3666 33.5098 73.2819 32.1615 73.0943 30.8343C73.0223 30.3248 72.9254 29.8148 72.8289 29.3057C72.4763 27.4488 72.1253 25.6 72.9802 23.7955C73.2355 23.2563 73.9464 22.0002 74.65 21.925C75.4096 21.8438 75.5885 22.7541 75.7006 23.3253C75.7142 23.3945 75.7268 23.4587 75.7393 23.5155C75.8556 23.4422 75.9673 23.4196 76.0664 23.3997C76.2471 23.3631 76.3859 23.3352 76.4339 23.0227C77.1602 23.7837 77.7854 24.6233 78.4112 25.4638C78.6798 25.8248 78.9486 26.1858 79.2256 26.5411C79.62 27.0465 80.113 27.5057 80.6064 27.9654C81.2197 28.5366 81.8332 29.108 82.257 29.7686C82.6885 30.4411 82.3604 31.3449 82.0526 32.1925C81.8973 32.6206 81.7473 33.034 81.7028 33.3961C81.5534 34.6123 81.8708 36.0039 82.7014 36.9312C83.09 37.3647 83.5651 37.666 84.1393 37.7825C84.4449 37.8443 84.7425 37.7773 85.0301 37.7124C85.28 37.6561 85.5226 37.6015 85.7564 37.6346C86.1104 37.6847 86.1772 37.8908 86.278 38.2024C86.296 38.258 86.3154 38.3171 86.3373 38.3792C86.5367 38.9414 86.7912 39.4722 87.262 39.8672C87.4591 40.0322 87.6615 40.1532 87.859 40.2714C88.1889 40.4687 88.5043 40.6574 88.7556 41.0281C88.8422 41.1562 88.9198 41.2832 88.9954 41.4072C89.2256 41.7845 89.4392 42.135 89.8481 42.4052C90.0351 42.5285 90.2508 42.6297 90.467 42.7312C91.0902 43.0234 91.7167 43.317 91.6584 44.1476L92.0324 43.8504C92.3214 44.7794 92.7192 45.6789 93.144 46.5525C93.343 46.9619 93.4453 47.1794 93.435 47.6348C93.4329 47.733 93.4137 47.8232 93.3953 47.9107C93.3572 48.0901 93.3218 48.2569 93.4415 48.4522C93.5962 48.7047 93.8915 48.8014 94.1846 48.8975C94.4309 48.9781 94.6756 49.0582 94.8342 49.2297C95.0055 49.4154 95.0087 49.6327 95.0119 49.8459C95.0154 50.0754 95.0188 50.2997 95.2322 50.4738C95.0588 50.5271 94.5785 50.9152 94.759 51.1509C94.9159 51.3555 94.9853 51.2672 95.0556 51.1776C95.1018 51.1187 95.1484 51.0592 95.2204 51.0813C95.446 51.1505 95.5243 51.334 95.5997 51.5107C95.664 51.6618 95.7263 51.8079 95.8767 51.8732C95.9446 51.9029 95.9384 51.5816 95.9349 51.5062C96.9155 53.439 97.9836 55.3249 99.0516 57.2107C100.442 59.6646 101.831 62.1179 103.026 64.6724C106.788 72.7129 111.259 80.5419 116.204 87.9168C116.592 88.4956 116.993 89.073 117.394 89.6517C118.2 90.813 119.01 91.9797 119.729 93.1739C120.413 94.3077 121.202 95.3603 121.993 96.4144C122.456 97.0322 122.92 97.6505 123.363 98.2858C123.95 99.1282 124.513 99.9871 125.077 100.846ZM95.9341 51.5042C95.9334 51.4838 95.9341 51.4875 95.9349 51.5062C95.9347 51.5055 95.9343 51.5049 95.9341 51.5042ZM15.897 45.0484C15.8854 45.1963 15.8736 45.3476 15.9239 45.5191C15.975 45.6944 16.1212 45.8262 16.266 45.9566C16.3696 46.0501 16.4725 46.1427 16.5394 46.2504C17.0773 45.4585 17.0586 43.7625 16.7304 42.9158C16.5755 42.5158 16.2824 41.9951 16.0503 41.644C16.0139 41.5892 15.9544 41.5294 15.8968 41.4716C15.8332 41.4078 15.7722 41.3466 15.747 41.2967C15.7071 41.2172 15.6888 41.1091 15.6703 40.9995C15.6505 40.8832 15.6308 40.7655 15.5841 40.6793C15.3233 40.1945 14.7523 40.0748 14.2505 40.1322C14.1965 40.1384 14.142 40.1444 14.0865 40.1504C13.6266 40.2007 13.124 40.2557 12.7135 40.4554C12.5859 40.5175 12.4773 40.5936 12.3733 40.6664C12.1313 40.836 11.9149 40.9877 11.5445 40.9026C11.6773 41.1315 11.5752 41.2991 11.4688 41.474C11.4074 41.5752 11.3442 41.6788 11.3244 41.7983C11.2548 42.2165 11.3897 42.5913 11.6659 42.9087C12.1778 43.4971 12.9157 43.5486 13.635 43.5989C13.7195 43.6047 13.8037 43.6108 13.8873 43.6174C14.5593 43.6716 15.386 43.7829 15.781 44.4125C15.9284 44.6479 15.9129 44.8449 15.897 45.0484ZM18.9744 43.1846C19.3015 43.7453 20.0386 45.2423 19.9823 45.9435V47.7334C19.9223 48.3583 18.8663 49.4266 18.3211 49.9782C18.2594 50.0406 18.2044 50.0962 18.158 50.1439C17.0225 51.3128 15.7892 51.4623 14.1063 51.3132C12.6808 51.1868 10.8344 50.7117 9.86953 49.5785C8.94331 48.4913 8.95642 46.8065 9.09353 45.4677C9.28479 43.5979 10.1051 41.8946 11.198 40.3825C11.8382 39.4969 13.5899 37.435 14.9272 37.886C15.1245 37.9527 15.2755 38.1293 15.4105 38.2868C15.4352 38.3158 15.4595 38.3442 15.4834 38.3713C15.5925 38.5129 15.7006 38.6552 15.8081 38.7983C15.8747 38.9863 15.9946 39.0418 16.1674 38.9648C16.3243 39.1821 16.5026 39.3815 16.6808 39.5805C17.0351 39.9768 17.3884 40.3716 17.5679 40.9026C17.7383 41.4072 18.0922 41.9021 18.4356 42.3828C18.6303 42.6549 18.8216 42.9224 18.9744 43.1846Z" fill="#CB202D"/>
<path fill-rule="evenodd" clip-rule="evenodd" d="M78.2898 146.285C79.2629 145.904 80.4627 146.082 81.4828 146.1C82.7638 146.123 84.0483 146.221 85.3254 146.32C87.7781 146.513 90.2183 146.432 92.6731 146.661C93.8918 146.775 95.1113 146.88 96.3309 146.984C97.3987 147.075 98.6387 147.358 99.7048 147.154C100.145 147.07 101.333 146.656 101.113 146.011C100.943 145.514 99.6055 145.207 99.1699 145.066C98.1451 144.733 97.0869 144.494 96.0509 144.197C95.5188 144.044 94.9888 143.88 94.4286 143.933C93.953 143.978 93.4521 144.333 92.9703 144.292C92.2579 144.232 91.8906 143.337 91.368 142.943C90.5359 142.314 89.9191 142.65 89.2811 143.343C88.8094 143.855 88.36 144.629 87.5862 144.675C86.6017 144.733 86.41 143.889 86.8446 143.174C87.2447 142.514 88.3342 141.838 88.3927 141.016C88.4297 140.496 87.5989 139.106 87.1205 138.909C86.3163 138.576 85.1795 139.456 84.4525 139.727C83.1827 140.198 81.8864 140.616 80.6006 141.041C79.7213 141.333 78.4164 141.358 78.2503 142.389C78.0425 143.679 78.2956 144.989 78.2898 146.285ZM27.9623 126.451C28.218 125.885 28.4864 125.562 27.9754 125.037C27.6895 124.743 27.2864 124.598 27.0051 124.293C26.5824 123.835 25.9201 122.582 26.8261 122.267C27.6921 121.965 28.4217 123.17 29.1186 123.435C30.0032 123.771 30.5512 123.208 30.6777 122.362C30.8402 121.277 30.6614 120.142 30.7912 119.042C30.918 117.964 31.2945 117.069 31.5833 116.037C31.7793 115.338 32.0189 114.633 31.1303 114.478C30.3154 114.336 29.3703 114.674 28.544 114.719C27.2552 114.79 25.951 114.855 24.673 115.049C23.2461 115.264 23.2721 116.723 22.9138 117.916C22.0452 120.808 20.8805 123.646 20.338 126.627C20.1042 127.913 20.724 128.793 21.4456 129.804C22.3489 131.069 23.2886 132.332 24.3118 133.504C24.9949 134.287 25.7647 135.016 26.7595 135.376C27.8864 135.784 28.3171 135.331 28.0572 134.221C27.7138 132.754 27.1959 131.338 27.257 129.811C27.2793 129.255 27.4409 128.657 27.0399 128.192C26.7618 127.869 26.2854 127.76 25.9224 127.564C25.3242 127.24 24.3973 126.197 25.5629 125.973C26.3546 125.82 27.1959 126.353 27.9623 126.451ZM54.881 69.0138C55.5923 69.808 56.3655 70.5679 57.0399 71.3929C57.4265 71.8663 57.7005 72.435 58.1155 72.8835C59.0243 73.8656 59.9299 72.7773 60.7347 72.141C63.8997 69.6387 66.8782 66.9271 69.8939 64.2488C71.3307 62.9727 72.8593 61.7959 74.2731 60.4956C75.7054 59.1784 76.8979 57.6365 78.2398 56.233C78.8842 55.5591 79.6557 54.8905 80.0535 54.0297C80.3931 53.2956 80.4678 52.497 80.8547 51.7711C81.5243 50.5139 82.7522 49.0545 82.4707 47.5341C81.6414 48.4034 80.2605 51.5183 78.8135 50.0575C77.7809 49.0148 78.8357 47.4735 78.7897 46.2578C77.8093 46.6739 78.0642 48.3608 77.0189 48.6593C76.4535 48.8209 75.97 48.309 75.7063 47.8603C75.2505 47.0845 75.4177 46.2726 75.6249 45.4496C75.7658 44.8887 76.6663 43.039 75.7757 42.8108C75.004 42.6129 74.3572 44.0323 74.1014 44.5352C73.6327 45.4575 73.2698 46.4112 72.7551 47.3136C71.8676 48.8693 70.8453 50.3555 69.8705 51.8577C67.8631 54.9512 65.574 57.8549 63.2193 60.6905C60.7042 63.7191 57.9818 66.5749 54.881 69.0138ZM77.1801 78.8534C77.0787 81.5785 74.7369 83.645 72.711 85.1602C70.1219 87.0967 67.7335 89.2975 64.6456 90.3995C63.4568 90.8239 61.9723 90.7017 61.4961 92.0396C61.31 92.5629 61.4789 92.755 61.6807 93.2815C61.9961 94.1055 62.1859 94.9988 62.3357 95.8659C62.845 98.8161 62.3499 101.82 60.5771 104.276C59.6348 105.582 58.4307 106.692 57.1858 107.704C55.9439 108.714 54.7693 109.891 53.4002 110.727C50.4801 112.508 47.2362 113.53 43.8691 114.023C42.1179 114.279 40.3596 114.507 38.591 114.597C37.6738 114.644 36.7549 114.653 35.8373 114.612C35.4272 114.594 33.9025 114.248 33.6062 114.483C33.3782 114.664 33.2765 115.759 33.231 116.061C33.134 116.7 33.0577 117.329 32.9258 117.963C32.6608 119.234 32.3039 120.672 32.6943 121.954C32.8074 122.325 32.8989 122.627 33.2423 122.752C33.46 122.831 33.8458 122.692 34.0658 122.669C34.5638 122.618 35.0337 122.598 35.5345 122.651C37.1778 122.825 38.7915 123.245 40.4522 123.13C43.9929 122.887 47.537 122.637 51.0453 122.083C52.7518 121.814 54.3891 121.304 56.0673 120.91C57.6668 120.535 59.2654 120.156 60.7583 119.451C63.6831 118.069 66.3863 116.241 68.8009 114.1C71.3789 111.814 73.0854 109.105 74.698 106.081C76.1146 103.425 77.309 100.736 77.2469 97.6743C77.2076 95.7365 76.9299 93.3357 78.0502 91.6266C78.5621 90.8461 79.5945 90.1225 80.5564 90.5353C82.302 91.2847 80.6529 92.7683 79.9871 93.5811C79.028 94.7521 79.1569 96.5351 79.0574 97.9672C78.9399 99.6572 78.5602 101.139 78.1899 102.773C77.8276 104.373 78.5585 106.27 78.6307 107.902C78.7091 109.671 78.6575 111.443 78.6377 113.213C78.5984 116.733 78.762 120.244 78.7499 123.764C78.7435 125.59 78.7901 127.425 78.6747 129.248C78.5696 130.91 78.229 132.501 77.9309 134.132C77.6385 135.735 77.2121 137.653 77.3107 139.281C81.3107 137.759 85.2042 135.96 89.2658 134.6C87.999 133.496 87.9427 131.935 87.8404 130.377C87.7059 128.323 87.3676 126.286 87.2202 124.232C86.9288 120.175 87.0107 115.907 87.3558 111.854C87.7263 107.503 88.3835 103.167 88.5186 98.7978C88.5837 96.6931 88.4208 94.583 88.0781 92.506C87.7893 90.7562 87.5385 88.5544 86.626 87.0041C85.7542 85.5226 84.1514 84.5815 82.8139 83.5724C80.8581 82.0969 79.0465 80.4376 77.1801 78.8534ZM77.4223 21.9462C77.923 22.6234 78.4888 23.2483 79.0877 23.8399C79.7056 24.4504 79.9686 24.3155 80.7079 23.9981C82.1778 23.3663 82.1496 22.6356 81.3289 21.3692C79.4258 18.4315 78.7037 14.933 76.6899 12.0554C74.7057 9.22012 71.8194 6.92936 68.7893 5.29446C65.5377 3.54004 62.014 2.9818 58.3489 3.03415C56.4758 3.06097 54.5909 3.19023 52.7297 3.4001C50.9189 3.60411 49.3085 4.19828 47.5557 4.64691C46.6734 4.87266 45.7635 5.05999 44.9056 5.37024C44.153 5.64232 43.4763 6.06256 42.716 6.31683C41.0514 6.87299 39.3762 7.49463 37.8743 8.40426C36.4059 9.29381 35.083 10.2425 33.7493 11.3345C32.3681 12.4655 31.1686 13.7798 29.675 14.7729C28.3153 15.6769 27.234 16.895 26.0011 17.9544C24.713 19.0616 23.525 20.4181 22.5586 21.8171C21.6137 23.1849 21.2542 24.9548 20.6834 26.4974C20.0189 28.2928 19.3598 30.2121 19.1095 32.1157C18.6431 35.6628 19.6899 39.8089 21.021 43.0915C22.3377 46.3382 24.4714 49.0472 27.0173 51.4242C28.2584 52.5836 29.6127 53.6357 31.1301 54.4109C32.4281 55.0741 34.1206 56.2663 35.5334 55.4332C36.1055 55.0958 36.5698 54.7036 37.2311 54.5517C37.954 54.3857 38.6621 54.4537 39.2456 53.9237C39.7416 53.4733 39.9788 52.9296 40.63 52.6577C41.4021 52.3352 42.3152 52.2765 43.1419 52.2791C44.9984 52.2853 46.856 52.7499 48.6279 53.2653C50.2517 53.7374 51.6105 54.4496 53.3355 54.0181C54.6173 53.6974 56.6733 52.8449 56.9496 51.3754C57.1966 50.062 56.2435 48.364 55.7636 47.1888C55.1002 45.5645 54.4994 43.9668 54.0827 42.2592C53.7524 40.9062 53.2338 38.7415 54.1661 37.5047C55.0822 36.2897 57.2 36.3043 58.5158 36.6099C59.3782 36.8102 60.171 37.2135 61.0338 37.4168C61.9128 37.624 62.8222 37.728 63.7188 37.8297C66.826 38.181 71.2465 37.3865 71.081 33.416C70.9338 29.8773 68.9838 26.3299 70.1258 22.7869C70.591 21.3428 71.5418 19.6726 73.1249 19.2913C74.3806 18.989 76.0777 19.3059 77.1855 19.9627C78.0743 20.4898 78.9552 21.5938 77.4223 21.9462ZM15.0251 37.7525C11.8931 38.3635 9.82171 41.665 9.24772 44.5926C8.98747 45.9191 8.89571 47.4991 9.39879 48.7827C9.97859 50.2625 11.6176 50.8801 13.0639 51.1904C14.7171 51.5452 16.1821 51.4066 17.4928 50.2605C18.0689 49.7564 18.557 49.1693 18.9711 48.5278C19.3944 47.8717 19.9832 47.3938 19.5575 46.6605C18.5022 44.8438 17.6017 43.059 16.9067 41.0605C16.5966 40.1686 16.3209 39.2972 16.1151 38.3787C15.9517 37.6494 15.8726 37.2043 15.0251 37.7525ZM42.4564 57.5701C41.8504 58.1538 41.1541 58.6188 40.3719 58.9326C39.5138 59.2767 39.2533 59.1114 39.2959 60.104C39.3429 61.2 39.3509 62.0772 38.8512 63.0971C38.6174 63.5746 37.7535 64.2189 37.9166 64.756C38.1509 65.5268 40.55 66.3062 41.2499 66.5757C42.9244 67.2209 44.8781 67.234 46.4587 66.3226C48.2946 65.264 48.457 63.3447 47.7655 61.4873C47.6918 61.2892 47.4234 60.9544 47.4893 60.738C47.6105 60.3415 48.1093 60.3986 48.3956 60.5502C49.0171 60.8789 49.2767 61.8789 49.4105 62.5029C49.7679 64.1701 49.1114 65.9757 47.8637 67.1244C47.2295 67.7078 46.4365 68.0979 45.6277 68.3789C45.1686 68.5386 44.6868 68.6648 44.202 68.7135C43.8103 68.7529 43.3156 68.6293 42.9414 68.7411C42.2821 68.9375 42.2527 69.7506 42.0878 70.3451C41.7934 71.4075 41.6705 72.5577 41.6318 73.6569C41.5693 75.4347 41.781 77.6998 42.8037 79.2069C45.1897 82.7237 49.8045 83.9443 53.4075 85.754C55.3226 86.7161 57.0986 87.9247 58.8038 89.2167C58.9723 89.3444 59.2244 89.5945 59.4266 89.694C60.1102 90.0303 59.5132 89.9078 59.9507 89.6856C60.2877 89.5145 60.5761 89.143 60.9242 88.9494C61.726 88.503 62.6264 88.2621 63.442 87.8405C65.338 86.8599 67.0155 85.6431 68.6984 84.3445C70.4228 83.0136 72.1693 81.7986 73.7423 80.2835C74.4057 79.6451 75.1525 79.1186 75.8254 78.5074C76.5032 77.8915 75.6358 77.636 75.0618 77.1827C73.1084 75.64 71.1792 74.0482 69.0932 72.6847C68.3973 72.2297 67.7836 71.6162 67.0577 71.2141C66.2995 70.7942 65.8495 71.1705 65.2523 71.7043C64.5996 72.288 63.9775 72.86 63.2512 73.3592C62.2918 74.0188 61.1765 74.3362 60.212 74.9641C60.8312 75.6123 62.341 75.8291 62.56 76.811C62.7822 77.806 61.3005 78.5824 60.6079 78.9666C59.3851 79.6453 58.0362 80.0572 56.6735 80.3517C55.5397 80.5964 53.8587 80.2279 52.9501 81.0836C52.691 80.5356 52.4481 80.2494 52.8745 79.7252C53.3004 79.2019 54.0597 79.1119 54.6608 78.9105C56.2839 78.3666 57.8827 77.642 59.4534 76.9627C59.245 76.4749 58.7239 76.1409 58.3267 75.8233C57.7596 75.3696 57.2832 74.867 56.8216 74.3029C55.9409 73.2269 55.1512 72.0791 54.3124 70.9715C53.9488 70.491 53.617 70.0113 52.9527 70.2774C52.3663 70.5123 51.794 71.1213 51.2305 71.4365C49.956 72.15 48.8411 72.8349 47.4382 73.2888C46.873 73.4716 44.5583 73.9926 45.174 72.5777C45.3565 72.1582 45.9663 71.9854 46.342 71.8021C47.0361 71.463 47.7281 71.1174 48.3969 70.7302C49.7707 69.935 50.9823 68.9076 52.2676 67.9827C53.6855 66.9623 55.1277 65.9721 56.459 64.838C55.1344 63.9606 53.6649 63.3181 52.2951 62.5156C50.9105 61.7044 49.5158 60.9711 48.0837 60.2506C46.9435 59.6768 45.7845 59.065 44.7449 58.3236C44.3316 58.0285 42.9096 56.8032 42.4564 57.5701ZM84.1067 29.0323C83.9325 29.0761 83.7601 29.126 83.589 29.1814C84.7504 30.957 83.4683 33.1549 83.8317 35.0759C84.9038 34.442 85.0441 31.976 86.672 32.4318C88.4251 32.9231 87.5527 35.0809 88.0835 36.315C88.9121 35.5908 89.8794 36.2678 90.2213 37.1269C90.5913 38.0579 90.0781 38.9173 90.2507 39.8385C90.4291 40.7918 90.9618 40.1663 91.2571 39.6041C91.6334 38.8874 91.9622 37.9186 91.8236 37.0988C91.6549 36.1019 90.9855 35.1748 90.5707 34.2692C90.1587 33.3694 89.7685 32.4511 89.1721 31.6528C88.0428 30.1412 86.0812 28.783 84.1067 29.0323ZM95.3367 50.3231C94.5788 48.4309 93.4568 46.6981 92.7399 44.7909C92.5304 44.2332 92.4133 43.3442 91.8588 43.0006C91.4946 42.7747 91.0097 42.9103 90.6081 42.7889C90.2075 42.6679 89.7855 42.3795 89.4981 42.0819C88.9727 41.5375 88.8023 40.7906 88.1825 40.3165C87.3827 39.7047 86.7648 39.47 86.3842 38.4477C86.0855 37.6448 86.0849 37.5271 85.187 37.7063C84.2069 37.9019 83.4107 37.6623 82.7344 36.8966C81.5892 35.6001 81.4626 33.7736 82.0246 32.2087C82.2874 31.4768 82.7447 30.6254 82.365 29.8592C82.0119 29.1473 81.1551 28.6362 80.612 28.0689C79.2395 26.6349 78.1652 24.9567 76.8782 23.452C76.57 23.0921 76.2552 22.733 76.0177 22.3203C75.8668 22.0582 75.7779 21.6073 75.4282 21.5332C74.8267 21.4055 73.9867 22.4458 73.6841 22.8247C71.4685 25.5978 73.0536 29.3746 73.3235 32.5008C73.4608 34.0928 73.7696 36.0013 73.0635 37.5004C72.3984 38.913 70.7144 39.6181 69.2954 40.0113C67.3813 40.5419 65.3256 40.5185 63.3779 40.1964C62.3578 40.0277 61.3787 39.7397 60.413 39.3748C59.4251 39.0013 58.3974 38.359 57.3904 39.0365C56.0907 39.9114 56.4923 41.6665 56.7777 42.9456C57.2441 45.035 58.0583 46.984 58.7787 48.9913C59.3836 50.6772 59.8734 52.7923 58.6016 54.3009C57.3313 55.8075 55.2247 56.7505 53.2639 56.6723C49.1989 56.5102 45.4882 53.4793 41.3342 54.7191C42.1147 55.0416 42.9397 55.2314 43.7024 55.6008C44.623 56.0465 45.4751 56.639 46.3688 57.135C48.0844 58.0865 49.806 59.0246 51.4826 60.0443C52.9976 60.9653 54.4299 61.9745 55.8758 62.9955C57.6775 64.2675 58.6265 62.8586 59.7822 61.4845C62.3056 58.4852 64.7075 55.309 67.0001 52.1304C68.9933 49.3672 70.8433 46.482 72.2847 43.3949C72.8004 42.2903 73.6688 40.4166 75.1781 40.6345C76.5178 40.8279 77.2991 42.4444 77.9918 43.4338C78.4751 43.0876 78.8894 42.6245 79.5418 42.8151C80.0832 42.9729 80.4573 43.5282 80.6969 44.0018C80.8615 44.3274 80.9737 45.4244 81.2492 45.5895C81.445 45.707 82.1937 45.4545 82.5274 45.5317C83.6696 45.7956 84.0347 47.2638 84.0231 48.2826C84.007 49.6872 83.4201 51.0924 82.9392 52.393C81.8612 55.3085 80.0144 57.5871 77.9787 59.8908C75.9124 62.2287 73.7494 64.3479 71.4191 66.4225C70.844 66.9344 70.2745 67.4523 69.7138 67.9801C69.2539 68.4127 68.5259 68.8629 68.1661 69.3714C67.5002 70.312 69.2817 70.739 69.9446 71.0832C72.797 72.5643 75.4256 74.5152 77.9376 76.5043C80.5282 78.5557 83.1332 80.6151 85.6224 82.7888C88.0574 84.9153 90.3575 87.1816 92.9217 89.1591C95.5564 91.1906 98.3168 93.0662 101.024 94.9992C103.734 96.9342 106.371 98.9699 109.077 100.907C111.723 102.801 114.562 104.424 117.344 106.105C118.8 106.984 120.263 107.851 121.725 108.719C122.907 109.421 124.19 110.512 125.592 110.601C126.855 110.681 128.053 111.146 128.808 109.773C129.381 108.73 129.144 107.296 128.642 106.284C128.03 105.048 127.072 103.911 126.302 102.767C125.417 101.452 124.596 100.099 123.722 98.7767C122.885 97.509 121.954 96.3391 121.019 95.1445C120.072 93.9333 119.353 92.5683 118.509 91.286C116.704 88.5445 114.849 85.8527 113.138 83.0499C109.214 76.6219 105.7 69.986 102.342 63.2504C102.047 62.6568 95.1435 50.4286 95.3367 50.3231ZM89.8123 89.8431C91.9211 97.1321 90.705 104.544 90.2726 111.959C90.0541 115.708 90.0208 119.481 89.9239 123.235C89.8766 125.06 89.88 126.886 89.9557 128.711C89.9939 129.628 90.061 130.543 90.1263 131.459C90.1841 132.269 89.9668 133.164 90.0689 133.946C90.1998 134.947 92.1872 135.143 91.5767 136.428C91.1671 137.29 89.7326 137.421 88.9641 137.785C89.3058 138.18 89.8403 138.772 90.4102 138.81C90.9233 138.843 91.3198 138.398 91.7799 138.23C92.1885 138.08 92.7504 137.935 93.0083 138.412C93.2784 138.911 92.7128 139.466 92.4891 139.853C93.2496 140 93.7757 139.546 94.4619 139.588C95.1837 139.632 95.2164 140.342 95.6909 140.753C96.2333 141.223 97.1806 141.324 97.8494 141.522C98.6275 141.752 99.4095 142.037 100.118 142.436C101.385 143.15 102.473 144.499 102.941 145.879C103.426 147.309 102.669 148.547 101.54 149.425C101.12 149.752 100.517 150.132 99.9595 149.955C99.3221 149.754 99.2226 149.235 98.4459 149.274C97.7484 149.308 97.0863 149.587 96.385 149.622C95.3544 149.675 94.3248 149.487 93.2931 149.527C89.1296 149.687 84.9657 149.722 80.8093 149.322C79.7337 149.218 78.6797 149.134 77.6196 149.1C76.7952 149.074 76.7262 148.459 76.5865 147.687C76.2491 145.823 76.9953 143.988 76.6259 142.176C76.6504 142.296 76.0667 141.985 75.9964 141.926C75.5679 141.565 75.4248 141.053 75.2973 140.52C74.9574 139.102 74.9608 137.658 75.0659 136.212C75.3049 132.93 75.9154 129.679 75.8655 126.38C75.8402 124.717 75.8905 123.058 75.8909 121.395C75.8913 119.868 76.0295 118.362 76.0424 116.845C76.0706 113.521 76.4206 110.233 76.5182 106.913C75.8262 107.586 75.4592 108.524 75.0197 109.364C74.479 110.397 73.876 111.419 73.2156 112.381C71.8523 114.365 70.0231 115.981 68.1281 117.445C64.5118 120.239 60.583 122.404 56.1524 123.589C51.356 124.872 46.5053 125.738 41.5607 126.225C40.4166 126.337 39.2598 126.398 38.1133 126.287C37.3624 126.214 36.142 125.607 35.4285 125.915C34.6177 126.265 34.4546 127.106 33.3915 126.87C32.9858 126.78 32.692 126.509 32.3368 126.326C31.8143 126.058 31.7935 126.243 31.2947 126.277C30.7385 126.316 30.4052 126.038 29.9204 126.486C29.5089 126.866 29.5489 127.132 29.9247 127.488C30.4532 127.988 31.299 128.072 31.8279 128.595C32.3426 129.103 32.2504 129.727 31.4554 129.735C30.6556 129.742 29.9447 129.173 29.1631 129.099C29.3297 131.411 30.0255 133.994 29.254 136.263C28.896 137.316 28.1282 137.994 26.983 137.986C25.0665 137.974 23.3855 136.211 22.2313 134.838C21.5933 134.079 21.076 133.226 20.4601 132.448C19.8302 131.653 19.1548 130.853 18.7942 129.891C18.4106 128.868 18.5226 127.841 18.737 126.791C19.0024 125.491 19.2492 124.178 19.57 122.89C20.1921 120.393 21.4435 118.114 22.0753 115.624C22.3143 114.683 22.3113 113.577 22.9145 112.77C23.5529 111.915 24.5464 111.86 25.5317 111.914C26.7513 111.982 27.97 112.117 29.1831 112.255C29.9492 112.342 31.6278 112.895 32.2512 112.424C32.4659 112.262 32.4663 111.837 32.7173 111.69C32.9593 111.549 33.35 111.65 33.6146 111.67C34.9244 111.767 36.2456 111.885 37.558 111.923C42.4362 112.066 47.5839 111.306 51.9393 109.04C53.9604 107.988 55.5001 106.332 57.1246 104.769C58.7219 103.231 60.114 101.576 60.5438 99.3441C60.9362 97.3062 60.7878 94.869 60.136 92.8964C59.5012 90.975 57.2479 89.8111 55.608 88.8636C53.334 87.5497 50.9198 86.4608 48.4697 85.5176C48.0807 85.3681 47.608 85.1774 47.1803 85.2539C46.6557 85.3479 46.3035 85.8022 45.8264 86.0029C45.2593 86.2412 44.5637 86.2425 43.9652 86.3817C43.385 86.5167 42.8193 86.7024 42.2284 86.7916C40.3671 87.0722 37.7516 86.8481 36.2133 85.6592C33.699 83.7161 35.2181 80.9661 36.0259 78.6009C35.1719 78.5721 34.4608 78.7717 33.6457 78.4064C32.8336 78.0421 32.1986 77.3974 31.8283 76.5898C31.1548 75.1204 31.5438 73.4319 31.7426 71.8997C31.8324 71.2068 31.9349 70.5193 32.1992 69.8686C32.404 69.3647 32.7401 68.8844 32.8643 68.3514C33.001 67.7643 32.8237 67.7302 32.3342 67.4495C31.5792 67.0167 31.036 66.519 30.5739 65.7593C29.669 64.2716 29.6466 62.6476 30.388 61.0825C30.6883 60.4491 31.4043 59.5782 31.3229 58.8385C31.2528 58.2019 30.5325 57.7062 30.1082 57.2895C28.7982 56.0024 27.4055 54.8143 25.9527 53.6916C25.2739 53.1668 24.526 52.6906 23.909 52.0945C23.4569 51.6578 22.9976 50.7077 22.3794 50.478C21.7605 50.2483 21.3483 50.9394 20.9172 51.3099C20.2452 51.8873 19.6012 52.5518 18.8688 53.0523C17.5553 53.9501 15.9268 53.7821 14.4433 53.4954C12.8939 53.1956 11.4569 52.6681 10.1357 51.7975C9.6109 51.4515 8.99779 50.749 8.35159 50.6927C7.66133 50.6327 6.91133 51.3189 6.41792 51.7309C5.13002 52.8065 4.74342 54.4771 3.9932 55.9221C3.15553 57.5358 2.79965 59.2107 3.02766 61.0246C3.23267 62.6566 3.86126 63.8897 4.79628 65.2079C4.98969 65.4806 5.44249 65.9957 5.11154 66.2972C4.70667 66.6662 3.87716 65.9263 3.60531 65.6873C0.905094 63.3125 -0.629505 59.7342 0.247071 56.152C0.717486 54.2287 1.6379 52.4491 2.70681 50.7941C3.16133 50.0901 3.60466 49.3863 4.39507 49.0272C5.29485 48.6187 6.31433 48.6673 7.27537 48.5693C6.61068 45.3153 6.40266 41.7744 8.44528 38.9383C10.0128 36.762 13.2229 34.8578 15.7669 36.6226C15.6627 34.2236 15.3208 31.9455 15.9593 29.5833C16.2453 28.5249 16.6373 27.4949 17.1191 26.5096C17.591 25.5443 18.2428 24.7255 18.624 23.7206C20.1283 19.7566 23.0146 16.2157 26.0974 13.3706C29.2136 10.4948 32.2714 6.98637 36.1968 5.18719C40.2919 3.30989 44.4625 1.6229 48.9027 0.769922C53.5113 -0.115487 58.2483 -0.297227 62.891 0.541054C66.9608 1.27597 70.7273 3.74693 73.8068 6.41083C77.3208 9.45056 79.5895 13.1151 81.3842 17.36C81.7783 18.2925 82.1584 19.2329 82.642 20.1241C83.1784 21.1128 83.8673 22.0324 84.2619 23.0933C84.6137 24.0395 84.673 25.0661 84.0463 25.9115C83.6058 26.5059 82.7019 26.64 82.3168 27.1837C82.1223 27.458 82.1419 27.7188 82.5694 27.8005C83.0107 27.8847 83.2211 27.3924 83.5385 27.1949C84.3285 26.7032 85.4432 27.1223 86.2418 27.4014C88.1357 28.0635 89.618 29.2528 90.7514 30.9011C91.836 32.4787 92.5564 34.2709 93.2724 36.035C93.7244 37.148 94.1544 38.2537 94.4032 39.4328C94.4967 39.8764 94.6272 41.0789 93.9261 40.552C93.6418 40.3384 93.2357 41.9596 93.3122 42.2177C93.5789 43.1156 94.5296 43.9573 95.089 44.6843C96.4046 46.3932 97.2857 48.3075 98.2136 50.2403C100.224 54.4257 102.462 58.4888 104.613 62.6018C108.992 70.9775 113.778 79.0315 118.798 87.0374C121.285 91.0038 123.85 94.9025 126.508 98.7563C127.682 100.457 128.859 102.158 130.006 103.876C130.982 105.336 131.944 106.962 131.693 108.784C131.463 110.452 130.472 111.792 128.869 112.337C128.011 112.63 126.991 112.967 126.072 112.877C125.067 112.779 124.18 112.106 123.342 111.602C119.492 109.281 115.642 106.963 111.789 104.647C107.481 102.057 103.54 98.9817 99.4295 96.1019C97.3379 94.6367 95.1812 93.3161 93.0019 91.9898C92.511 91.6911 90.2845 89.5511 89.8123 89.8431Z" fill="#3A3A3A"/>
<path fill-rule="evenodd" clip-rule="evenodd" d="M52.5064 97.2169C51.454 98.7664 50.3473 100.223 48.866 101.398C47.3054 102.637 45.6734 103.64 43.931 104.601C40.8582 106.296 36.7392 107.797 33.1701 107.028C32.1552 106.81 30.5314 105.922 31.4138 104.654C31.8573 104.017 32.8087 104.183 33.4822 104.218C34.5672 104.275 35.516 104.336 36.5557 103.971C38.4659 103.3 40.3893 102.667 42.2546 101.878C44.0613 101.112 45.6457 100.063 47.3032 99.0322C48.8578 98.0654 50.0436 96.9081 51.4093 95.7393C51.7833 95.4193 52.4262 94.8591 52.78 95.4816C53.0357 95.9314 52.6465 96.777 52.5064 97.2169Z" fill="#3A3A3A"/>
<path fill-rule="evenodd" clip-rule="evenodd" d="M95.031 22.7942C94.9135 23.4654 94.5954 24.8008 93.6509 24.6183C92.4464 24.3858 93.0398 22.0275 93.0215 21.227C92.9415 17.7387 91.8041 14.3846 90.1201 11.3602C89.2827 9.85663 88.2511 8.46619 87.4902 6.9196C87.3423 6.61908 86.8936 5.87379 87.2196 5.54778C87.6109 5.15628 88.3614 5.74708 88.6373 6.02647C89.7037 7.10688 90.5531 8.72658 91.3762 9.99791C92.4754 11.6951 93.4463 13.4878 94.1435 15.3909C94.985 17.6897 95.458 20.356 95.031 22.7942Z" fill="#3A3A3A"/>
<path fill-rule="evenodd" clip-rule="evenodd" d="M97.2845 11.639C97.3971 12.244 97.9477 13.8899 96.9658 14.0358C95.8528 14.2013 95.5071 11.459 95.198 10.7324C95.0351 10.3494 94.1669 8.66247 94.6195 8.29527C95.5616 7.53079 97.0612 11.1523 97.2845 11.639Z" fill="#3A3A3A"/>
<path fill-rule="evenodd" clip-rule="evenodd" d="M44.9032 93.2644C43.8468 94.2269 42.6203 94.1704 41.2869 94.0789C40.6097 94.0322 39.0416 93.6312 40.1314 92.7914C40.7006 92.3528 45.1669 92.0511 44.9032 93.2644Z" fill="#3A3A3A"/>
<path fill-rule="evenodd" clip-rule="evenodd" d="M127.221 110.888C127.296 110.739 127.93 110.022 128.066 110.312C128.195 110.585 127.388 110.88 127.221 110.888Z" fill="#3A3A3A"/>
<path fill-rule="evenodd" clip-rule="evenodd" d="M43.1946 57.6775C43.0645 57.9455 42.5219 57.7114 42.335 57.7521C42.589 57.2081 42.8909 57.3246 43.1946 57.6775Z" fill="#3A3A3A"/>
<path fill-rule="evenodd" clip-rule="evenodd" d="M84.0265 29.2263C83.97 29.4412 83.9137 29.6561 83.8574 29.871C83.7705 29.7101 83.6835 29.5491 83.5967 29.3879C83.7398 29.3342 83.8834 29.2803 84.0265 29.2263Z" fill="#3A3A3A"/>
<path fill-rule="evenodd" clip-rule="evenodd" d="M85.0635 69.8285C86.4193 69.9652 87.7796 70.0344 89.1408 70.0763C90.2899 70.1115 90.7618 69.8943 90.9086 68.7001C91.0824 67.2843 91.1417 65.8559 91.3156 64.4395C91.3945 63.7961 92.0185 62.5103 91.2668 62.1658C90.6367 61.8772 89.654 62.2907 88.994 62.3392C88.2588 62.3934 87.1495 62.1693 86.4997 62.6051C85.8049 63.071 85.9562 64.7025 85.8378 65.4682C85.6121 66.928 85.3401 68.3779 85.0635 69.8285ZM84.4167 62.9524C83.1879 63.0452 81.955 63.1185 80.7296 63.2493C80.1842 63.3078 79.0805 63.5775 78.6208 63.1806C77.5418 62.2494 81.5744 61.9226 82.0319 61.8491C82.803 61.7253 84.1225 61.8897 84.6167 61.1618C85.1056 60.4419 84.9821 59.2322 85.1084 58.3965C85.2986 57.1387 85.5161 55.8826 85.6431 54.6166C85.6856 54.1911 85.6248 52.7854 86.0742 52.5766C87.107 52.0965 86.7825 57.0437 86.7655 57.415C86.7365 58.0535 86.7045 58.695 86.6155 59.3281C86.5654 59.685 86.389 60.1677 86.4977 60.5261C86.8091 61.554 88.5782 60.9613 89.3841 60.8792C90.2871 60.7872 91.6816 61.1371 91.9805 60.0228C92.3561 58.6226 92.3015 57.0323 92.4408 55.5916C92.4793 55.1932 92.5798 52.2177 93.3141 52.4483C94.134 52.7059 93.814 55.1923 93.8065 55.8325C93.7981 56.555 93.8009 57.2779 93.7519 57.9991C93.7081 58.6471 93.5254 59.4411 93.6606 60.083C93.8976 61.2084 95.2319 60.6099 95.6192 61.5052C95.9871 62.356 93.9812 61.689 93.6066 61.9812C93.0472 62.4177 93.1818 64.2413 93.1018 64.8798C92.9265 66.2824 92.5897 67.7388 92.4801 69.1372C92.394 70.2411 93.2813 70.0945 94.1843 70.0146C94.9588 69.946 95.8096 69.7621 96.5858 69.8655C97.2094 69.9482 98.0808 70.5228 97.1729 70.9051C95.7533 71.5032 92.8626 70.2815 92.1494 72.0976C92.0149 72.4402 91.3889 76.4132 90.6023 74.4521C90.2735 73.6322 91.0785 72.346 90.22 71.7179C89.9224 71.5 89.479 71.5385 89.1337 71.5144C88.2833 71.4551 87.4276 71.4349 86.5755 71.4173C85.726 71.3996 84.9627 71.2286 84.6346 72.1591C84.379 72.8842 84.4074 73.6954 84.2033 74.4375C84.05 74.9936 83.5472 75.9671 83.0256 75.0572C82.6831 74.4596 82.9452 73.4154 83.0129 72.7655C83.0467 72.4402 83.2407 71.7669 82.9938 71.4935C82.7288 71.2002 82.0197 71.359 81.6844 71.3854C80.7167 71.4622 78.9146 71.9279 78.1738 71.0502C77.5543 70.3159 78.8424 70.3019 79.3489 70.2523C79.8707 70.2011 80.3927 70.1539 80.914 70.0991C81.488 70.0385 82.2479 70.1193 82.7881 69.9394C83.6954 69.6372 83.6308 68.4037 83.6903 67.6036C83.807 66.0407 84.1586 64.4968 84.4167 62.9524Z" fill="#3A3A3A"/>
<path fill-rule="evenodd" clip-rule="evenodd" d="M100.358 66.2904C100.284 67.1928 100.187 68.2045 99.8953 69.0622C99.6748 69.7103 99.2297 69.9074 99.078 69.0819C98.9817 68.5587 99.6211 65.6107 100.358 66.2904Z" fill="#3A3A3A"/>
<path fill-rule="evenodd" clip-rule="evenodd" d="M43.0729 60.3486C42.711 60.0888 40.9972 58.7222 42.2359 58.6683C42.8683 58.6405 44.231 59.6809 44.2701 60.2581C44.28 60.4038 43.9684 60.4792 43.9854 60.6202C44.0176 60.8886 44.4149 61.0156 44.543 61.229C44.8252 61.6996 44.7081 62.6295 44.3436 63.0769C43.5124 64.0973 42.5894 62.3699 43.2328 62.031C43.0894 62.1065 41.1652 61.1284 41.093 60.9075C40.6972 59.697 42.9755 60.8375 43.0729 60.3486Z" fill="#3A3A3A"/>
<path fill-rule="evenodd" clip-rule="evenodd" d="M46.0928 65.112C45.6533 65.1258 44.7705 65.0952 44.4413 64.7815C43.8292 64.198 45.023 64.1207 45.3722 63.8488C45.8618 63.4682 45.9578 62.23 46.7263 62.9961C47.4885 63.7562 46.8183 64.6403 46.0928 65.112Z" fill="#3A3A3A"/>
<path fill-rule="evenodd" clip-rule="evenodd" d="M39.7568 61.8968C40.5515 61.7803 42.3195 63.4935 41.4616 63.6074C40.8939 63.6828 39.8808 62.3545 39.7568 61.8968Z" fill="#3A3A3A"/>
</svg>
